# xmcd
#
# Track frame offsets: 
#        150
#        21850
#        42289
#        64149
#        81336
#        97359
#        116872
#        141156
#        162958
#        181542
#
# Disc length: 2683 seconds
#
# Revision: 1
# Processed by: cddbd v1.5.2PL0 Copyright (c) Steve Scherf et al.
# Submitted via: ExactAudioCopy v0.99pb5
#
DISCID=890a790a
DTITLE=Maikel Blanco Y Su Salsa Mayor - Soy Lo Que Te Hala
DYEAR=2011
DGENRE=Salsa
TTITLE0=Que Tu Crees ?
TTITLE1=Se Acabo El Amor
TTITLE2=Arriba De Lo Mal Hecho
TTITLE3=Pari Parara
TTITLE4=Publicalo
TTITLE5=Reposa
TTITLE6=Pa' Cualquiera
TTITLE7=La Cara De Salir Pa' Andar
TTITLE8=Pacotillera
TTITLE9=Soy Lo Que Te Hala
EXTD=YEAR: 2011
EXTT0=
EXTT1=
EXTT2=
EXTT3=
EXTT4=
EXTT5=
EXTT6=
EXTT7=
EXTT8=
EXTT9=
PLAYORDER=
